<?xml version="1.0" encoding="UTF-8" standalone="no"?>
<!-- Created with Inkscape (http://www.inkscape.org/) -->

<svg
   xmlns:osb="http://www.openswatchbook.org/uri/2009/osb"
   xmlns:dc="http://purl.org/dc/elements/1.1/"
   xmlns:cc="http://creativecommons.org/ns#"
   xmlns:rdf="http://www.w3.org/1999/02/22-rdf-syntax-ns#"
   xmlns:svg="http://www.w3.org/2000/svg"
   xmlns="http://www.w3.org/2000/svg"
   xmlns:sodipodi="http://sodipodi.sourceforge.net/DTD/sodipodi-0.dtd"
   xmlns:inkscape="http://www.inkscape.org/namespaces/inkscape"
   width="100"
   height="100"
   id="svg2"
   version="1.1"
   inkscape:version="0.48.4 r9939"
   sodipodi:docname="render brand_colored.svg"
   inkscape:export-filename="C:\Users\jake\Pictures\render brand_colored.png"
   inkscape:export-xdpi="90.133011"
   inkscape:export-ydpi="90.133011">
  <defs
     id="defs4">
    <linearGradient
       id="linearGradient5269"
       osb:paint="solid">
      <stop
         style="stop-color:#000000;stop-opacity:1;"
         offset="0"
         id="stop5271" />
    </linearGradient>
  </defs>
  <sodipodi:namedview
     id="base"
     pagecolor="#ffffff"
     bordercolor="#666666"
     borderopacity="1.0"
     inkscape:pageopacity="0.39215686"
     inkscape:pageshadow="2"
     inkscape:zoom="5.6"
     inkscape:cx="98.827718"
     inkscape:cy="57.300994"
     inkscape:document-units="px"
     inkscape:current-layer="layer2"
     showgrid="true"
     inkscape:window-width="1680"
     inkscape:window-height="1028"
     inkscape:window-x="1672"
     inkscape:window-y="-8"
     inkscape:window-maximized="1"
     fit-margin-top="0"
     fit-margin-left="0"
     fit-margin-right="0"
     fit-margin-bottom="0"
     showguides="true"
     objecttolerance="10000"
     guidetolerance="1"
     gridtolerance="1">
    <inkscape:grid
       type="xygrid"
       id="grid3763"
       empspacing="5"
       visible="true"
       enabled="true"
       snapvisiblegridlinesonly="true" />
  </sodipodi:namedview>
  <metadata
     id="metadata7">
    <rdf:RDF>
      <cc:Work
         rdf:about="">
        <dc:format>image/svg+xml</dc:format>
        <dc:type
           rdf:resource="http://purl.org/dc/dcmitype/StillImage" />
        <dc:title></dc:title>
      </cc:Work>
    </rdf:RDF>
  </metadata>
  <g
     inkscape:label="Layer 1"
     inkscape:groupmode="layer"
     id="layer1"
     style="display:inline"
     transform="translate(-74.642868,-374.86217)" />
  <g
     inkscape:groupmode="layer"
     id="layer2"
     inkscape:label="Layer2"
     style="display:inline"
     transform="translate(-74.642868,-374.86217)">
    <path
       sodipodi:type="arc"
       style="fill:none;stroke:#081f2c;stroke-width:18.01182747000000000;stroke-linecap:butt;stroke-miterlimit:4;stroke-opacity:1;stroke-dasharray:none;opacity:1;fill-opacity:1"
       id="path3755"
       sodipodi:cx="242.85715"
       sodipodi:cy="296.64789"
       sodipodi:rx="165.71428"
       sodipodi:ry="175.71428"
       d="m 408.57143,296.64789 a 165.71428,175.71428 0 1 1 -331.428562,0 165.71428,175.71428 0 1 1 331.428562,0 z"
       transform="matrix(0.2857519,0,0,0.26967167,55.183126,344.8062)" />
    <path
       style="fill:none;stroke:#081f2c;stroke-width:5;stroke-linecap:butt;stroke-miterlimit:4;stroke-opacity:1;stroke-dasharray:none;opacity:1;fill-opacity:1"
       d="M 125.4444,377.26069 160.42877,458.207 125.56421,377.41143"
       id="path4163"
       inkscape:connector-curvature="0"
       sodipodi:nodetypes="ccc" />
    <path
       style="fill:none;stroke:#081f2c;stroke-width:5;stroke-linecap:butt;stroke-linejoin:miter;stroke-miterlimit:4;stroke-opacity:1;stroke-dasharray:none;opacity:1;fill-opacity:1"
       d="m 125.31551,375.18971 c 0,66.53412 0,67.95847 0,67.95847"
       id="path3953"
       inkscape:connector-curvature="0"
       sodipodi:nodetypes="cc" />
    <path
       style="fill:none;stroke:#081f2c;stroke-width:5;stroke-linecap:butt;stroke-linejoin:miter;stroke-miterlimit:4;stroke-opacity:1;stroke-dasharray:none;marker-start:none;opacity:1;fill-opacity:1"
       d="m 78.303402,415.8003 c 25.428548,13.89504 60.637318,-1.06885 60.637318,-1.06885 l -0.39122,-0.53442"
       id="path3969"
       inkscape:connector-curvature="0" />
    <path
       style="fill:none;stroke:#081f2c;stroke-width:5;stroke-linecap:round;stroke-miterlimit:4;stroke-opacity:1;stroke-dasharray:none;opacity:1;fill-opacity:1"
       d="m 103.85348,421.82413 c 14.55494,4.97896 21.15449,20.12422 21.15449,20.12422 l 0,-0.22721"
       id="path4151"
       inkscape:connector-curvature="0"
       sodipodi:nodetypes="ccc" />
    <path
       style="fill:none;stroke:#081f2c;stroke-width:4.98153447999999970;stroke-linecap:round;stroke-linejoin:round;stroke-miterlimit:4;stroke-opacity:1;stroke-dasharray:none;opacity:1;fill-opacity:1"
       d="m 125.40714,440.13286 c -0.5218,50.23311 -39.31036,12.04969 -39.31036,12.04969"
       id="path4161"
       inkscape:connector-curvature="0"
       sodipodi:nodetypes="cc" />
    <path
       style="fill:none;stroke:#081f2c;stroke-width:1px;stroke-linecap:butt;stroke-linejoin:miter;stroke-opacity:1;opacity:1;fill-opacity:1"
       d="m 123.3491,443.42506 -0.14686,-0.61908"
       id="path3767"
       inkscape:connector-curvature="0" />
    <path
       style="fill:#dc4405;fill-opacity:1;stroke:#dc4405;stroke-width:0.35714287;stroke-linecap:square;stroke-miterlimit:0.30000001;stroke-opacity:1;stroke-dasharray:none"
       d="M 27.238432,44.212934 C 20.48724,44.025588 14.000399,42.680339 8.3523511,40.296318 L 6.4156217,39.478831 6.5341603,38.919275 C 6.792131,37.701538 8.222648,33.615461 9.0109327,31.844713 11.369276,26.547091 14.290212,22.343673 18.567725,18.091863 25.720509,10.98206 34.84073,6.626949 45.095575,5.4242185 45.979504,5.3205477 47.004432,5.2354997 47.373195,5.2352231 l 0.670476,-5.031e-4 -0.04548,18.4375 -0.04548,18.4375 -1.964286,0.392425 c -5.956491,1.189986 -13.31685,1.861559 -18.75,1.710789 z"
       id="path5370"
       inkscape:connector-curvature="0"
       transform="translate(74.642868,374.86217)" />
    <path
       style="fill:#dc4405;fill-opacity:1;stroke:#dc4405;stroke-width:0.35714287;stroke-linecap:square;stroke-miterlimit:0.30000001;stroke-opacity:1;stroke-dasharray:none"
       d="m 53.227565,27.690077 c 0.0058,-10.940032 0.04526,-12.992699 0.240853,-12.544643 5.385646,12.336927 9.588959,22.28617 9.464778,22.403127 -0.329911,0.310721 -9.001461,3.221873 -9.597104,3.221873 -0.06353,0 -0.112372,-5.886161 -0.108527,-13.080357 z"
       id="path5372"
       inkscape:connector-curvature="0"
       transform="translate(74.642868,374.86217)" />
    <path
       style="fill:#dc4405;fill-opacity:1;stroke:#dc4405;stroke-width:0.35714287;stroke-linecap:square;stroke-miterlimit:0.30000001;stroke-opacity:1;stroke-dasharray:none"
       d="M 85.589455,76.350791 C 85.523503,76.178916 78.621069,60.168695 70.250711,40.77252 61.880353,21.376347 55.053389,5.4852393 55.079679,5.4589488 c 0.02629,-0.02629 1.03477,0.1198282 2.241066,0.3247082 8.845069,1.5022666 17.02158,5.60501 23.456655,11.769891 11.75713,11.263475 16.473468,27.626054 12.518185,43.429838 -1.115276,4.456216 -3.398276,9.625505 -5.958876,13.492405 -0.79669,1.203125 -1.488761,2.1875 -1.537936,2.1875 -0.04917,0 -0.143368,-0.140625 -0.209318,-0.3125 z"
       id="path5374"
       inkscape:connector-curvature="0"
       transform="translate(74.642868,374.86217)" />
    <path
       style="fill:#dc4405;fill-opacity:1;stroke:#dc4405;stroke-width:0.35714287;stroke-linecap:square;stroke-miterlimit:0.30000001;stroke-opacity:1;stroke-dasharray:none"
       d="M 45.452718,94.50608 C 44.667004,94.4261 43.033586,94.181237 41.822901,93.961939 l -2.201245,-0.398725 0.951245,-0.240469 c 2.225249,-0.562529 4.84091,-2.169727 6.399842,-3.932395 3.314136,-3.747255 5.11093,-8.903634 5.990503,-17.191345 0.21998,-2.072751 0.272086,-4.925641 0.261195,-14.301007 l -0.01361,-11.711721 1.478084,-0.400169 c 2.471172,-0.669031 4.913292,-1.443908 7.783402,-2.469648 1.50364,-0.537382 2.755127,-0.948379 2.781082,-0.913327 0.02596,0.03505 3.809513,8.780075 8.407904,19.433387 l 8.360711,19.369657 -1.320365,1.238323 c -7.363503,6.90597 -16.537255,11.074793 -26.562499,12.070784 -2.114104,0.210032 -6.579177,0.205302 -8.686436,-0.0092 z"
       id="path5376"
       inkscape:connector-curvature="0"
       transform="translate(74.642868,374.86217)" />
    <path
       style="fill:#dc4405;fill-opacity:1;stroke:#dc4405;stroke-width:0.35714287;stroke-linecap:square;stroke-miterlimit:0.30000001;stroke-opacity:1;stroke-dasharray:none"
       d="m 47.238783,57.21082 c -0.999951,-1.392157 -6.00248,-6.366687 -7.472564,-7.430742 -1.040172,-0.752882 -1.159859,-0.891726 -0.803572,-0.932193 1.91933,-0.217998 5.073582,-0.692596 6.847214,-1.030252 1.178571,-0.224372 2.164143,-0.38719 2.190158,-0.36182 0.02602,0.02537 0.02602,2.454267 0,5.397547 l -0.0473,5.351418 -0.713935,-0.993958 z"
       id="path5378"
       inkscape:connector-curvature="0"
       transform="translate(74.642868,374.86217)" />
    <path
       style="fill:#dc4405;fill-opacity:1;stroke:#dc4405;stroke-width:0.35714287;stroke-linecap:square;stroke-miterlimit:0.30000001;stroke-opacity:1;stroke-dasharray:none"
       d="M 34.381289,88.3544 C 29.017379,87.347968 21.159115,82.678641 14.387404,76.474171 12.877182,75.090455 12.279801,74.26802 10.660418,71.3431 8.1853505,66.872648 6.4318128,61.628564 5.6323029,56.306148 5.2930215,54.047518 5.1074449,48.375194 5.3080626,46.395434 c 0.1294119,-1.277079 0.1826307,-1.425277 0.5018522,-1.397508 0.1963989,0.01708 1.4017318,0.433852 2.6785175,0.92615 5.1247897,1.975998 12.6668137,3.402549 18.0508247,3.414258 1.468356,0.0032 1.781757,0.06883 3.303572,0.691924 3.679353,1.506467 6.814689,3.653702 10.076496,6.90089 3.008552,2.995069 5.619084,6.492309 7.396689,9.909093 l 0.77319,1.486166 -0.120247,1.80237 c -0.333562,4.999798 -1.443607,9.93643 -2.874728,12.7846 -2.324527,4.626203 -5.758981,6.370535 -10.71294,5.441023 l 0,0 z"
       id="path5380"
       inkscape:connector-curvature="0"
       transform="translate(74.642868,374.86217)" />
  </g>
</svg>
